<?xml version="1.0" standalone="no"?>
<!DOCTYPE svg PUBLIC "-//W3C//DTD SVG 20010904//EN"
 "http://www.w3.org/TR/2001/REC-SVG-20010904/DTD/svg10.dtd">
<svg version="1.0" xmlns="http://www.w3.org/2000/svg"
 width="512.000000pt" height="512.000000pt" viewBox="0 0 512.000000 512.000000"
 preserveAspectRatio="xMidYMid meet">
<metadata>
Created by potrace 1.14, written by Peter Selinger 2001-2017
</metadata>
<g transform="translate(0.000000,512.000000) scale(0.100000,-0.100000)"
fill="#000000" stroke="none">
<path d="M2510 3523 c-130 -9 -234 -57 -315 -145 -134 -144 -205 -399 -205
-733 0 -553 179 -858 516 -882 246 -17 426 105 520 353 97 258 107 704 22 989
-85 287 -276 436 -538 418z m183 -196 c25 -15 55 -39 66 -53 l20 -26 -262
-524 c-144 -288 -265 -520 -269 -516 -34 34 -54 530 -29 709 32 227 101 361
213 418 47 24 62 26 134 23 65 -4 90 -9 127 -31z m186 -416 c6 -56 11 -175 11
-264 0 -256 -24 -412 -81 -532 -38 -81 -77 -125 -140 -160 -45 -25 -65 -29
-125 -29 -60 0 -81 4 -129 29 -32 17 -67 41 -77 55 l-19 26 262 529 262 530
12 -41 c7 -22 18 -87 24 -143z"/>
<path d="M3975 3519 c-180 -19 -339 -118 -404 -252 -50 -103 -51 -254 -4 -359
30 -67 119 -157 189 -191 24 -11 44 -23 44 -26 0 -4 -33 -24 -72 -46 -89 -50
-187 -144 -222 -212 -39 -78 -53 -176 -38 -265 43 -255 258 -408 574 -408 248
0 446 106 536 289 33 67 37 83 40 171 4 81 0 110 -17 162 -37 112 -138 217
-278 291 l-64 34 68 43 c99 64 176 146 203 217 31 82 26 223 -11 304 -79 170
-305 273 -544 248z m233 -186 c63 -31 115 -92 132 -151 18 -67 12 -172 -14
-227 -25 -54 -117 -147 -179 -180 l-38 -20 -82 28 c-122 42 -185 75 -228 118
-91 91 -89 280 4 377 64 68 142 93 266 88 67 -3 94 -9 139 -33z m-135 -747
c150 -58 190 -79 244 -129 71 -65 87 -106 87 -212 0 -109 -21 -161 -93 -228
-72 -68 -142 -90 -276 -90 -140 0 -208 23 -276 93 -65 66 -82 124 -77 248 5
114 25 167 88 236 43 47 155 126 177 126 7 0 63 -20 126 -44z"/>
<path d="M610 3075 l0 -425 85 0 c61 0 109 7 175 26 78 22 106 26 188 22 84
-3 104 -8 151 -33 70 -39 116 -106 136 -201 40 -190 -8 -381 -120 -465 -64
-49 -130 -69 -229 -69 -129 0 -243 41 -326 116 l-40 36 -65 -57 c-36 -32 -62
-61 -59 -66 14 -23 132 -104 196 -134 91 -43 188 -65 293 -65 267 0 463 132
546 367 29 80 37 262 16 360 -33 155 -115 266 -243 329 -66 33 -84 38 -174 42
-113 5 -196 -8 -277 -43 l-53 -24 0 275 0 274 338 0 339 0 11 64 c7 35 12 71
12 80 0 15 -40 16 -450 16 l-450 0 0 -425z"/>
<path d="M4050 1550 l0 -91 -26 20 c-56 44 -143 18 -175 -52 -23 -51 -25 -153
-5 -202 28 -67 115 -91 174 -48 29 22 30 22 35 3 3 -12 14 -20 26 -20 21 0 21
3 21 235 0 136 -4 235 -9 235 -5 0 -16 3 -25 6 -14 5 -16 -6 -16 -86z m-26
-111 c25 -19 26 -25 26 -109 0 -86 -1 -89 -31 -114 -72 -61 -139 -6 -139 114
0 109 73 165 144 109z"/>
<path d="M4292 1480 c-67 -41 -92 -161 -52 -248 15 -33 29 -47 62 -62 49 -22
69 -24 118 -10 54 16 66 26 51 43 -11 14 -16 14 -48 0 -68 -28 -135 6 -149 75
l-6 32 116 0 c131 0 127 -3 105 86 -23 92 -118 132 -197 84z m132 -51 c14 -17
26 -41 26 -55 0 -24 -1 -24 -91 -24 l-91 0 6 33 c14 75 102 103 150 46z"/>
<path d="M4636 1373 c25 -70 53 -147 61 -171 14 -39 18 -43 46 -40 29 3 32 7
88 163 32 88 58 163 59 168 0 4 -10 7 -23 7 -20 0 -27 -15 -71 -146 -26 -80
-51 -143 -54 -139 -4 4 -28 68 -53 143 -42 127 -47 137 -72 140 l-27 3 46
-128z"/>
<path d="M3545 1236 c-33 -50 20 -104 70 -72 27 17 32 45 15 77 -15 28 -65 25
-85 -5z"/>
</g>
</svg>
